<svg width="53" height="76" viewBox="0 0 53 76" fill="none" xmlns="http://www.w3.org/2000/svg">
<path d="M53 26.0937C53 38.3991 33.6785 67.0727 28.032 75.1896C27.8617 75.4349 27.6331 75.6357 27.3661 75.7744C27.0992 75.9131 26.8019 75.9856 26.5 75.9856C26.1981 75.9856 25.9008 75.9131 25.6339 75.7744C25.3669 75.6357 25.1383 75.4349 24.968 75.1896C19.3215 67.0727 0 38.3991 0 26.0937C2.96218e-07 19.1732 2.79194 12.5362 7.76166 7.64267C12.7314 2.74915 19.4718 0 26.5 0C33.5282 0 40.2686 2.74915 45.2383 7.64267C50.208 12.5362 53 19.1732 53 26.0937Z" fill="#00A7B6"/>
<path d="M26.5 37.5378C33.9462 37.5378 39.9825 31.5941 39.9825 24.2621C39.9825 16.9301 33.9462 10.9863 26.5 10.9863C19.0539 10.9863 13.0176 16.9301 13.0176 24.2621C13.0176 31.5941 19.0539 37.5378 26.5 37.5378Z" fill="white"/>
</svg>
