<svg width="181" height="216" viewBox="0 0 181 216" fill="none" xmlns="http://www.w3.org/2000/svg">
<path d="M96.9574 1.72149L105.446 8.59348L174.136 64.0965L180.156 68.9945C180.564 69.3305 180.793 69.6965 180.828 70.0685C180.864 70.4415 180.706 70.8145 180.365 71.1635C180.023 71.5135 179.504 71.8325 178.84 72.1015C178.175 72.3715 177.38 72.5845 176.501 72.7305C175.679 72.8645 174.8 72.9345 173.912 72.9375L133.473 73.1045C131.625 73.1125 129.853 73.4065 128.544 73.9235C127.235 74.4405 126.494 75.1375 126.484 75.8635L127.046 212.03C127.049 212.756 126.322 213.456 125.022 213.976C123.722 214.497 121.956 214.796 120.108 214.809L63.0082 215.045C61.1522 215.052 59.3702 214.77 58.0552 214.26C56.7402 213.749 56.0002 213.053 55.9972 212.324L55.4342 76.1575C55.4182 75.4345 54.6792 74.7465 53.3762 74.2405C52.0742 73.7355 50.3122 73.4535 48.4732 73.4555L7.13323 73.6265C6.24623 73.6305 5.36622 73.5675 4.54322 73.4405C3.66222 73.3015 2.86522 73.0935 2.19922 72.8285C1.53222 72.5645 1.01222 72.2485 0.669223 71.9005C0.326223 71.5535 0.167219 71.1815 0.203219 70.8075C0.239219 70.4345 0.468215 70.0665 0.877215 69.7275L6.94722 64.7875L75.8962 8.71549L84.4175 1.76148C84.9979 1.30148 85.8926 0.912497 87.0009 0.638497C88.1092 0.365497 89.387 0.218485 90.6904 0.214485C91.9938 0.210485 93.2711 0.348486 94.3783 0.615486C95.4856 0.881486 96.3788 1.26449 96.9574 1.72149Z" fill="#00A7B6"/>
</svg>
