<svg width="216" height="181" viewBox="0 0 216 181" fill="none" xmlns="http://www.w3.org/2000/svg">
<path d="M214.226 96.8563L207.354 105.345L151.851 174.035L146.953 180.055C146.617 180.463 146.251 180.692 145.879 180.727C145.506 180.763 145.133 180.605 144.784 180.264C144.434 179.922 144.115 179.403 143.846 178.739C143.576 178.074 143.363 177.279 143.217 176.4C143.083 175.578 143.013 174.699 143.01 173.811L142.843 133.372C142.835 131.524 142.541 129.752 142.024 128.443C141.507 127.133 140.81 126.393 140.084 126.383L3.91707 126.945C3.19111 126.948 2.49156 126.221 1.97101 124.921C1.45046 123.621 1.15114 121.854 1.13832 120.007L0.902491 62.9072C0.894824 61.0512 1.1772 59.2692 1.68751 57.9542C2.19782 56.6392 2.89426 55.8992 3.62362 55.8962L139.79 55.3331C140.513 55.3171 141.201 54.5781 141.707 53.2751C142.212 51.9731 142.494 50.2112 142.492 48.3722L142.321 7.03216C142.317 6.14516 142.38 5.26515 142.507 4.44215C142.646 3.56115 142.854 2.76415 143.119 2.09815C143.383 1.43115 143.699 0.911155 144.047 0.568155C144.394 0.225155 144.766 0.0661513 145.14 0.102151C145.513 0.138151 145.881 0.367147 146.22 0.776147L151.16 6.84615L207.232 75.7951L214.186 84.3164C214.646 84.8968 215.035 85.7915 215.309 86.8998C215.582 88.0081 215.729 89.2859 215.733 90.5893C215.737 91.8927 215.599 93.17 215.332 94.2772C215.066 95.3845 214.683 96.2777 214.226 96.8563Z" fill="#00A7B6"/>
</svg>
