<svg width="182" height="287" viewBox="0 0 182 287" fill="none" xmlns="http://www.w3.org/2000/svg">
<path d="M96.7592 1.50663L105.248 8.37863L173.938 63.8816L179.958 68.7796C180.366 69.1156 180.594 69.4816 180.63 69.8536C180.666 70.2266 180.508 70.5996 180.166 70.9486C179.824 71.2986 179.306 71.6176 178.641 71.8866C177.977 72.1566 177.182 72.3696 176.303 72.5156C175.481 72.6496 174.602 72.7196 173.714 72.7226L133.274 72.8896C131.426 72.8976 129.655 73.1916 128.346 73.7086C127.036 74.2256 126.296 74.9226 126.286 75.6486L126.848 211.815C126.851 212.541 126.123 213.241 124.824 213.761C123.524 214.282 121.757 214.581 119.909 214.594L62.81 214.83C60.954 214.838 59.172 214.555 57.857 214.045C56.542 213.535 55.802 212.838 55.799 212.109L55.236 75.9426C55.22 75.2196 54.481 74.5316 53.178 74.0256C51.876 73.5206 50.114 73.2386 48.275 73.2406L6.93501 73.4116C6.04801 73.4156 5.168 73.3526 4.345 73.2256C3.464 73.0866 2.667 72.8786 2.001 72.6136C1.334 72.3496 0.814006 72.0336 0.471006 71.6856C0.128006 71.3386 -0.0309978 70.9666 0.00500223 70.5926C0.0410023 70.2196 0.269998 69.8516 0.678998 69.5126L6.74901 64.5726L75.698 8.50063L84.2193 1.54662C84.7997 1.08662 85.6944 0.697637 86.8027 0.423637C87.911 0.150637 89.1888 0.00362579 90.4922 -0.000374091C91.7956 -0.00437398 93.0729 0.133627 94.1801 0.400627C95.2874 0.666627 96.1806 1.04963 96.7592 1.50663Z" fill="#00A7B6"/>
<path d="M84.8761 285.323L76.3876 278.451L7.69774 222.948L1.67746 218.05C1.26964 217.714 1.04085 217.348 1.00499 216.976C0.969127 216.603 1.12699 216.23 1.46891 215.881C1.81084 215.531 2.3297 215.212 2.99386 214.943C3.65803 214.673 4.45361 214.46 5.33211 214.314C6.15449 214.18 7.03372 214.11 7.92124 214.107L48.3609 213.94C50.2088 213.932 51.9806 213.638 53.2898 213.121C54.599 212.604 55.3394 211.907 55.3496 211.181L54.7872 75.0147C54.7842 74.2888 55.5119 73.5892 56.8117 73.0687C58.1115 72.5481 59.878 72.2488 61.7258 72.236L118.825 72.0002C120.681 71.9925 122.463 72.2749 123.778 72.7852C125.093 73.2955 125.833 73.9919 125.836 74.7213L126.399 210.887C126.415 211.61 127.154 212.298 128.457 212.804C129.759 213.309 131.521 213.591 133.36 213.589L174.7 213.418C175.587 213.414 176.467 213.477 177.29 213.604C178.171 213.743 178.968 213.951 179.634 214.216C180.301 214.48 180.821 214.796 181.164 215.144C181.507 215.491 181.666 215.863 181.63 216.237C181.594 216.61 181.365 216.978 180.956 217.317L174.886 222.257L105.937 278.329L97.416 285.283C96.8356 285.743 95.9409 286.132 94.8326 286.406C93.7243 286.679 92.4465 286.826 91.1431 286.83C89.8397 286.834 88.5624 286.696 87.4552 286.429C86.3479 286.163 85.4547 285.78 84.8761 285.323Z" fill="#00A7B6"/>
</svg>
