<svg width="330" height="219" viewBox="0 0 330 219" fill="none" xmlns="http://www.w3.org/2000/svg">
<path d="M85.0328 216.278L76.5443 209.406L7.85447 153.903L1.83419 149.005C1.42637 148.669 1.19758 148.303 1.16172 147.931C1.12586 147.558 1.28372 147.185 1.62565 146.836C1.96757 146.486 2.48643 146.167 3.15059 145.898C3.81476 145.628 4.61034 145.415 5.48884 145.269C6.31122 145.135 7.19045 145.065 8.07797 145.062L48.5176 144.895C50.3655 144.887 52.1373 144.593 53.4465 144.076C54.7557 143.559 55.4961 142.862 55.5063 142.136L54.9439 5.96929C54.9409 5.24333 55.6686 4.54378 56.9684 4.02323C58.2682 3.50268 60.0347 3.20336 61.8825 3.19054L118.982 2.95471C120.838 2.94704 122.62 3.22942 123.935 3.73973C125.25 4.25004 125.99 4.94648 125.993 5.67584L126.556 141.842C126.572 142.565 127.311 143.253 128.614 143.759C129.916 144.264 131.678 144.546 133.517 144.544L174.857 144.373C175.744 144.369 176.624 144.432 177.447 144.559C178.328 144.698 179.125 144.906 179.791 145.171C180.458 145.435 180.978 145.751 181.321 146.099C181.664 146.446 181.823 146.818 181.787 147.192C181.751 147.565 181.522 147.933 181.113 148.272L175.043 153.212L106.094 209.284L97.5727 216.238C96.9923 216.698 96.0976 217.087 94.9893 217.361C93.881 217.634 92.6032 217.781 91.2998 217.785C89.9964 217.789 88.7191 217.651 87.6119 217.384C86.5046 217.118 85.6114 216.735 85.0328 216.278V216.278Z" fill="#00A7B6"/>
<path d="M245.487 1.90522L253.947 8.81179L322.407 64.5989L328.407 69.5215C328.814 69.8589 329.041 70.2254 329.075 70.5984C329.11 70.9715 328.95 71.3434 328.607 71.6915C328.263 72.0396 327.743 72.3566 327.078 72.6231C326.413 72.8897 325.616 73.1002 324.737 73.2419C323.914 73.3725 323.035 73.4392 322.147 73.4384L281.707 73.4384C279.859 73.4383 278.086 73.7254 276.775 74.2369C275.464 74.7484 274.72 75.4428 274.707 76.1688L274.707 212.336C274.707 213.062 273.977 213.759 272.675 214.274C271.373 214.789 269.605 215.081 267.757 215.086L210.657 215.086C208.801 215.086 207.02 214.797 205.707 214.281C204.395 213.765 203.657 213.066 203.657 212.336L203.657 76.1688C203.644 75.4462 202.908 74.7547 201.607 74.2438C200.307 73.7328 198.546 73.4435 196.707 73.4384L155.367 73.4384C154.48 73.4392 153.6 73.3725 152.777 73.2419C151.897 73.0995 151.101 72.8881 150.436 72.6207C149.771 72.3532 149.252 72.0353 148.91 71.6864C148.568 71.3374 148.411 70.9648 148.449 70.5912C148.486 70.2176 148.717 69.851 149.127 69.5136L155.217 64.5989L224.397 8.81179L232.947 1.89342C233.53 1.43529 234.426 1.05018 235.535 0.781383C236.645 0.512583 237.923 0.370794 239.226 0.372019C240.53 0.373244 241.807 0.517407 242.913 0.788289C244.019 1.05917 244.91 1.446 245.487 1.90522V1.90522Z" fill="#00A7B6"/>
</svg>
