<svg width="181" height="216" viewBox="0 0 181 216" fill="none" xmlns="http://www.w3.org/2000/svg">
<path d="M84.0328 214.278L75.5443 207.406L6.85447 151.903L0.834191 147.005C0.426372 146.669 0.197578 146.303 0.161719 145.931C0.12586 145.558 0.283718 145.185 0.625645 144.836C0.967573 144.486 1.48643 144.167 2.15059 143.898C2.81476 143.628 3.61034 143.415 4.48884 143.269C5.31122 143.135 6.19045 143.065 7.07797 143.062L47.5176 142.895C49.3655 142.887 51.1373 142.593 52.4465 142.076C53.7557 141.559 54.4961 140.862 54.5063 140.136L53.9439 3.96929C53.9409 3.24333 54.6686 2.54378 55.9684 2.02323C57.2682 1.50268 59.0347 1.20336 60.8825 1.19054L117.982 0.954709C119.838 0.947042 121.62 1.22942 122.935 1.73973C124.25 2.25004 124.99 2.94648 124.993 3.67584L125.556 139.842C125.572 140.565 126.311 141.253 127.614 141.759C128.916 142.264 130.678 142.546 132.517 142.544L173.857 142.373C174.744 142.369 175.624 142.432 176.447 142.559C177.328 142.698 178.125 142.906 178.791 143.171C179.458 143.435 179.978 143.751 180.321 144.099C180.664 144.446 180.823 144.818 180.787 145.192C180.751 145.565 180.522 145.933 180.113 146.272L174.043 151.212L105.094 207.284L96.5727 214.238C95.9923 214.698 95.0976 215.087 93.9893 215.361C92.881 215.634 91.6032 215.781 90.2998 215.785C88.9964 215.789 87.7191 215.651 86.6119 215.384C85.5046 215.118 84.6114 214.735 84.0328 214.278V214.278Z" fill="#00A7B6"/>
</svg>
