<svg width="784" height="812" viewBox="0 0 784 812" fill="none" xmlns="http://www.w3.org/2000/svg">
<g clip-path="url(#clip0_16321_91)">
<path d="M728.72 0L721.41 7.04L641.89 83.67L507.08 213.58L513.43 769.66L0.669922 643.42V275.37L194.1 52.39L728.72 0Z" fill="#373E46"/>
<path d="M783.79 353.278L769.02 730.728L239.77 811.328L0.669922 643.418V280.738L507.08 213.578L783.79 353.278Z" fill="#373E46"/>
<path d="M783.12 353.278L768.34 730.728L239.1 811.328L0 643.418V280.738L506.41 213.578L783.12 353.278Z" fill="#373E46"/>
<path opacity="0.1" d="M239.77 421.78V811.33L0.669922 643.42V280.98L239.77 421.78Z" fill="#00A7B6"/>
<path opacity="0.1" d="M507.08 213.578L512.45 773.718L769.02 730.728L783.79 353.278L507.08 213.578Z" fill="#00A7B6"/>
<path d="M783.79 353.278L680.36 343.868L431.91 220.858L507.08 213.578L783.79 353.278Z" fill="#373E46"/>
<path opacity="0.1" d="M350.52 217.982L351.92 67.832L343.23 210.252L350.52 217.982Z" fill="#00A7B6"/>
<path opacity="0.1" d="M409.68 67.832L407.99 249.002C404.88 248.332 401.8 247.512 398.78 246.582L409.68 67.832Z" fill="#00A7B6"/>
<path opacity="0.1" d="M467.44 67.832L465.77 247.552C462.68 248.422 459.52 249.152 456.34 249.742L467.44 67.832Z" fill="#00A7B6"/>
<path opacity="0.1" d="M523.87 211.002L525.2 67.832L515.96 219.212L523.87 211.002Z" fill="#00A7B6"/>
<path opacity="0.1" d="M409.21 210.22L409.68 159.18L406.56 210.22H409.21Z" fill="#00A7B6"/>
<path opacity="0.1" d="M522.08 210.22L525.2 159.18L524.73 210.22H522.08Z" fill="#00A7B6"/>
<path d="M783.12 355.289L777.01 486.529L774.54 539.559L765.66 730.059L236.41 811.999V421.109L783.12 355.289Z" fill="#373E46"/>
<path d="M0.669922 280.741L102.66 267.211L317.68 382.831L239.77 421.781L0.669922 280.741Z" fill="#373E46"/>
<path opacity="0.05" d="M0.669922 280.741L102.66 267.211L317.68 382.831L239.77 421.781L0.669922 280.741Z" fill="#00A7B6"/>
<path d="M777.01 486.531L774.54 539.561L236.41 594.891L0.669922 487.511V435.891L236.41 538.791L777.01 486.531Z" fill="#00A7B6"/>
<path opacity="0.1" d="M236.41 538.791V594.891L0.669922 487.511V435.891L236.41 538.791Z" fill="#00A7B6"/>
<g clip-path="url(#clip1_16321_91)">
<path d="M311.7 42.1976L221.249 203.916C217.091 211.197 218.39 218.906 220.442 226.399L244.403 313.897C248.811 329.995 260.193 336.483 276.291 332.075L363.832 308.102C371.308 306.055 378.581 303.233 382.724 295.966L475.514 134.708C477.488 131.312 478.767 127.556 479.275 123.661C479.783 119.765 479.51 115.808 478.472 112.019C477.435 108.23 475.653 104.685 473.231 101.592C470.81 98.4988 467.796 95.9187 464.367 94.0024L352.856 30.6475C338.349 22.3925 319.96 27.7081 311.7 42.1976V42.1976ZM291.743 267.909C293.281 268.785 294.632 269.956 295.717 271.354C296.803 272.752 297.603 274.351 298.071 276.058C298.539 277.765 298.666 279.548 298.445 281.304C298.224 283.06 297.659 284.756 296.783 286.294C295.906 287.832 294.736 289.182 293.337 290.268C291.939 291.354 290.341 292.153 288.634 292.621C286.927 293.089 285.144 293.216 283.388 292.995C281.631 292.774 279.936 292.209 278.398 291.333C276.86 290.457 275.509 289.286 274.424 287.888C273.338 286.49 272.538 284.892 272.07 283.184C271.602 281.477 271.475 279.695 271.696 277.938C271.917 276.182 272.482 274.486 273.358 272.948C274.235 271.41 275.405 270.06 276.804 268.974C278.202 267.889 279.8 267.089 281.507 266.621C283.214 266.153 284.997 266.026 286.753 266.247C288.51 266.468 290.205 267.033 291.743 267.909V267.909Z" fill="#FFD983"/>
<path d="M256.419 263.292C254.272 267.053 252.888 271.2 252.345 275.496C251.802 279.792 252.111 284.153 253.255 288.329C254.399 292.506 256.354 296.416 259.01 299.836C261.666 303.256 264.97 306.119 268.733 308.261C276.331 312.592 285.338 313.728 293.773 311.418C302.208 309.108 309.379 303.542 313.711 295.945C318.042 288.347 319.177 279.34 316.867 270.905C314.557 262.47 308.991 255.298 301.394 250.967C293.795 246.64 284.788 245.508 276.355 247.819C267.921 250.131 260.75 255.696 256.419 263.292V263.292ZM291.749 267.898C293.325 268.757 294.714 269.921 295.834 271.322C296.955 272.724 297.785 274.335 298.275 276.061C298.765 277.787 298.907 279.594 298.691 281.375C298.474 283.156 297.905 284.877 297.016 286.435C296.127 287.994 294.936 289.36 293.513 290.453C292.09 291.545 290.463 292.344 288.728 292.8C286.992 293.257 285.183 293.363 283.407 293.112C281.63 292.861 279.921 292.258 278.38 291.338C275.346 289.528 273.142 286.6 272.243 283.183C271.344 279.766 271.821 276.133 273.572 273.063C275.322 269.994 278.207 267.734 281.606 266.768C285.004 265.803 288.646 266.208 291.749 267.898Z" fill="#D99E82"/>
<path d="M440.373 214.758C440.305 214.876 440.262 215.006 440.245 215.141C440.228 215.276 440.237 215.413 440.273 215.544C440.309 215.675 440.371 215.798 440.454 215.906C440.538 216.013 440.641 216.103 440.76 216.17C440.998 216.306 441.281 216.342 441.546 216.269C441.811 216.197 442.036 216.022 442.172 215.783C442.308 215.545 442.344 215.262 442.271 214.997C442.199 214.732 442.024 214.507 441.785 214.371C441.547 214.235 441.264 214.199 440.999 214.272C440.734 214.344 440.509 214.519 440.373 214.758V214.758ZM441.482 214.902C441.532 214.929 441.576 214.966 441.611 215.01C441.646 215.054 441.672 215.105 441.687 215.159C441.703 215.213 441.707 215.27 441.7 215.326C441.694 215.382 441.676 215.436 441.648 215.485C441.62 215.534 441.583 215.577 441.538 215.611C441.493 215.645 441.442 215.67 441.388 215.685C441.333 215.699 441.276 215.702 441.22 215.694C441.165 215.686 441.111 215.668 441.063 215.639C440.967 215.582 440.898 215.49 440.87 215.383C440.842 215.275 440.857 215.161 440.912 215.065C440.966 214.968 441.057 214.897 441.164 214.867C441.271 214.837 441.385 214.849 441.482 214.902Z" fill="#D99E82"/>
</g>
<g clip-path="url(#clip2_16321_91)">
<path d="M463.7 59.1976L373.249 220.916C369.091 228.197 370.39 235.906 372.442 243.399L396.403 330.897C400.811 346.995 412.193 353.483 428.291 349.075L515.832 325.102C523.308 323.055 530.581 320.233 534.724 312.966L627.514 151.708C629.488 148.312 630.767 144.556 631.275 140.661C631.783 136.765 631.51 132.808 630.472 129.019C629.435 125.23 627.653 121.685 625.231 118.592C622.81 115.499 619.796 112.919 616.367 111.002L504.856 47.6475C490.349 39.3925 471.96 44.7081 463.7 59.1976V59.1976ZM443.743 284.909C445.281 285.785 446.632 286.956 447.717 288.354C448.803 289.752 449.603 291.351 450.071 293.058C450.539 294.765 450.666 296.548 450.445 298.304C450.224 300.06 449.659 301.756 448.783 303.294C447.906 304.832 446.736 306.182 445.337 307.268C443.939 308.354 442.341 309.153 440.634 309.621C438.927 310.089 437.144 310.216 435.388 309.995C433.631 309.774 431.936 309.209 430.398 308.333C428.86 307.457 427.509 306.286 426.424 304.888C425.338 303.49 424.538 301.892 424.07 300.184C423.602 298.477 423.475 296.695 423.696 294.938C423.917 293.182 424.482 291.486 425.358 289.948C426.235 288.41 427.405 287.06 428.804 285.974C430.202 284.889 431.8 284.089 433.507 283.621C435.214 283.153 436.997 283.026 438.753 283.247C440.51 283.468 442.205 284.033 443.743 284.909V284.909Z" fill="#F40D0D"/>
<path d="M408.419 280.292C406.272 284.053 404.888 288.2 404.345 292.496C403.802 296.792 404.111 301.153 405.255 305.329C406.399 309.506 408.354 313.416 411.01 316.836C413.666 320.256 416.97 323.119 420.733 325.261C428.331 329.592 437.338 330.728 445.773 328.418C454.208 326.108 461.379 320.542 465.711 312.945C470.042 305.347 471.177 296.34 468.867 287.905C466.557 279.47 460.991 272.298 453.394 267.967C445.795 263.64 436.788 262.508 428.355 264.819C419.921 267.131 412.75 272.696 408.419 280.292V280.292ZM443.749 284.898C445.325 285.757 446.714 286.921 447.834 288.322C448.955 289.724 449.785 291.335 450.275 293.061C450.765 294.787 450.907 296.594 450.691 298.375C450.474 300.156 449.905 301.877 449.016 303.435C448.127 304.994 446.936 306.36 445.513 307.453C444.09 308.545 442.463 309.344 440.728 309.8C438.992 310.257 437.183 310.363 435.407 310.112C433.63 309.861 431.921 309.258 430.38 308.338C427.346 306.528 425.142 303.6 424.243 300.183C423.344 296.766 423.821 293.133 425.572 290.063C427.322 286.994 430.207 284.734 433.606 283.768C437.004 282.803 440.646 283.208 443.749 284.898Z" fill="#D99E82"/>
<path d="M592.373 231.758C592.305 231.876 592.262 232.006 592.245 232.141C592.228 232.276 592.237 232.413 592.273 232.544C592.309 232.675 592.371 232.798 592.454 232.906C592.538 233.013 592.641 233.103 592.76 233.17C592.998 233.306 593.281 233.342 593.546 233.269C593.811 233.197 594.036 233.022 594.172 232.783C594.308 232.545 594.344 232.262 594.271 231.997C594.199 231.732 594.024 231.507 593.785 231.371C593.547 231.235 593.264 231.199 592.999 231.272C592.734 231.344 592.509 231.519 592.373 231.758V231.758ZM593.482 231.902C593.532 231.929 593.576 231.966 593.611 232.01C593.646 232.054 593.672 232.105 593.687 232.159C593.703 232.213 593.707 232.27 593.7 232.326C593.694 232.382 593.676 232.436 593.648 232.485C593.62 232.534 593.583 232.577 593.538 232.611C593.493 232.645 593.442 232.67 593.388 232.685C593.333 232.699 593.276 232.702 593.22 232.694C593.165 232.686 593.111 232.668 593.063 232.639C592.967 232.582 592.898 232.49 592.87 232.383C592.842 232.275 592.857 232.161 592.912 232.065C592.966 231.968 593.057 231.897 593.164 231.867C593.271 231.837 593.385 231.849 593.482 231.902Z" fill="#D99E82"/>
</g>
<g clip-path="url(#clip3_16321_91)">
<path d="M581.7 72.1976L491.249 233.916C487.091 241.197 488.39 248.906 490.442 256.399L514.403 343.897C518.811 359.995 530.193 366.483 546.291 362.075L633.832 338.102C641.308 336.055 648.581 333.233 652.724 325.966L745.514 164.708C747.488 161.312 748.767 157.556 749.275 153.661C749.783 149.765 749.51 145.808 748.472 142.019C747.435 138.23 745.653 134.685 743.231 131.592C740.81 128.499 737.796 125.919 734.367 124.002L622.856 60.6475C608.349 52.3925 589.96 57.7081 581.7 72.1976V72.1976ZM561.743 297.909C563.281 298.785 564.632 299.956 565.717 301.354C566.803 302.752 567.603 304.351 568.071 306.058C568.539 307.765 568.666 309.548 568.445 311.304C568.224 313.06 567.659 314.756 566.783 316.294C565.906 317.832 564.736 319.182 563.337 320.268C561.939 321.354 560.341 322.153 558.634 322.621C556.927 323.089 555.144 323.216 553.388 322.995C551.631 322.774 549.936 322.209 548.398 321.333C546.86 320.457 545.509 319.286 544.424 317.888C543.338 316.49 542.538 314.892 542.07 313.184C541.602 311.477 541.475 309.695 541.696 307.938C541.917 306.182 542.482 304.486 543.358 302.948C544.235 301.41 545.405 300.06 546.804 298.974C548.202 297.889 549.8 297.089 551.507 296.621C553.214 296.153 554.997 296.026 556.753 296.247C558.51 296.468 560.205 297.033 561.743 297.909V297.909Z" fill="#20E33F"/>
<path d="M526.419 293.292C524.272 297.053 522.888 301.2 522.345 305.496C521.802 309.792 522.111 314.153 523.255 318.329C524.399 322.506 526.354 326.416 529.01 329.836C531.666 333.256 534.97 336.119 538.733 338.261C546.331 342.592 555.338 343.728 563.773 341.418C572.208 339.108 579.379 333.542 583.711 325.945C588.042 318.347 589.177 309.34 586.867 300.905C584.557 292.47 578.991 285.298 571.394 280.967C563.795 276.64 554.788 275.508 546.355 277.819C537.921 280.131 530.75 285.696 526.419 293.292V293.292ZM561.749 297.898C563.325 298.757 564.714 299.921 565.834 301.322C566.955 302.724 567.785 304.335 568.275 306.061C568.765 307.787 568.907 309.594 568.691 311.375C568.474 313.156 567.905 314.877 567.016 316.435C566.127 317.994 564.936 319.36 563.513 320.453C562.09 321.545 560.463 322.344 558.728 322.8C556.992 323.257 555.183 323.363 553.407 323.112C551.63 322.861 549.921 322.258 548.38 321.338C545.346 319.528 543.142 316.6 542.243 313.183C541.344 309.766 541.821 306.133 543.572 303.063C545.322 299.994 548.207 297.734 551.606 296.768C555.004 295.803 558.646 296.208 561.749 297.898Z" fill="#D99E82"/>
<path d="M710.373 244.758C710.305 244.876 710.262 245.006 710.245 245.141C710.228 245.276 710.237 245.413 710.273 245.544C710.309 245.675 710.371 245.798 710.454 245.906C710.538 246.013 710.641 246.103 710.76 246.17C710.998 246.306 711.281 246.342 711.546 246.269C711.811 246.197 712.036 246.022 712.172 245.783C712.308 245.545 712.344 245.262 712.271 244.997C712.199 244.732 712.024 244.507 711.785 244.371C711.547 244.235 711.264 244.199 710.999 244.272C710.734 244.344 710.509 244.519 710.373 244.758V244.758ZM711.482 244.902C711.532 244.929 711.576 244.966 711.611 245.01C711.646 245.054 711.672 245.105 711.687 245.159C711.703 245.213 711.707 245.27 711.7 245.326C711.694 245.382 711.676 245.436 711.648 245.485C711.62 245.534 711.583 245.577 711.538 245.611C711.493 245.645 711.442 245.67 711.388 245.685C711.333 245.699 711.276 245.702 711.22 245.694C711.165 245.686 711.111 245.668 711.063 245.639C710.967 245.582 710.898 245.49 710.87 245.383C710.842 245.275 710.857 245.161 710.912 245.065C710.966 244.968 711.057 244.897 711.164 244.867C711.271 244.837 711.385 244.849 711.482 244.902Z" fill="#D99E82"/>
</g>
</g>
<defs>
<clipPath id="clip0_16321_91">
<rect width="784" height="812" fill="white"/>
</clipPath>
<clipPath id="clip1_16321_91">
<rect width="324.094" height="324.094" fill="white" transform="translate(212.599 368.184) rotate(-105.315)"/>
</clipPath>
<clipPath id="clip2_16321_91">
<rect width="324.094" height="324.094" fill="white" transform="translate(364.599 385.184) rotate(-105.315)"/>
</clipPath>
<clipPath id="clip3_16321_91">
<rect width="324.094" height="324.094" fill="white" transform="translate(482.599 398.184) rotate(-105.315)"/>
</clipPath>
</defs>
</svg>
