<svg width="784" height="812" viewBox="0 0 784 812" fill="none" xmlns="http://www.w3.org/2000/svg">
<g clip-path="url(#clip0_15751_4)">
<path d="M728.72 0L721.41 7.04L641.89 83.67L507.08 213.58L513.43 769.66L0.669922 643.42V275.37L194.1 52.39L728.72 0Z" fill="#373E46"/>
<path opacity="0.1" d="M728.72 0L721.41 7.04L641.89 83.67L507.08 213.58L513.43 769.66L0.669922 643.42V275.37L194.1 52.39L728.72 0Z" fill="black"/>
<path d="M783.79 353.28L769.02 730.73L239.77 811.33L0.669922 643.42V280.74L507.08 213.58L783.79 353.28Z" fill="#373E46"/>
<path d="M783.12 353.28L768.34 730.73L239.1 811.33L0 643.42V280.74L506.41 213.58L783.12 353.28Z" fill="#373E46"/>
<path opacity="0.1" d="M239.77 421.78V811.33L0.669922 643.42V280.98L239.77 421.78Z" fill="black"/>
<path opacity="0.1" d="M721.41 7.03906L641.89 83.6691L258.58 126.269L190.07 59.0991L721.41 7.03906Z" fill="black"/>
<path opacity="0.1" d="M507.08 213.58L512.45 773.72L769.02 730.73L783.79 353.28L507.08 213.58Z" fill="black"/>
<path d="M783.79 353.28L680.36 343.87L431.91 220.86L507.08 213.58L783.79 353.28Z" fill="#373E46"/>
<path d="M194.1 52.39L262.61 119.55L722 68.51L728.72 0L194.1 52.39Z" fill="#373E46"/>
<path opacity="0.1" d="M350.52 217.98L351.92 67.8301L343.23 210.25L350.52 217.98Z" fill="black"/>
<path opacity="0.1" d="M409.68 67.8301L407.99 249C404.88 248.33 401.8 247.51 398.78 246.58L409.68 67.8301Z" fill="black"/>
<path opacity="0.1" d="M467.44 67.8301L465.77 247.55C462.68 248.42 459.52 249.15 456.34 249.74L467.44 67.8301Z" fill="black"/>
<path opacity="0.1" d="M523.87 211L525.2 67.8301L515.96 219.21L523.87 211Z" fill="black"/>
<path opacity="0.1" d="M409.21 210.22L409.68 159.18L406.56 210.22H409.21Z" fill="black"/>
<path opacity="0.1" d="M522.08 210.22L525.2 159.18L524.73 210.22H522.08Z" fill="black"/>
<path d="M783.12 355.289L777.01 486.529L774.54 539.559L765.66 730.059L236.41 811.999V421.109L783.12 355.289Z" fill="#373E46"/>
<path d="M0.669922 280.741L102.66 267.211L317.68 382.831L239.77 421.781L0.669922 280.741Z" fill="#373E46"/>
<path opacity="0.05" d="M0.669922 280.741L102.66 267.211L317.68 382.831L239.77 421.781L0.669922 280.741Z" fill="black"/>
<path d="M777.01 486.531L774.54 539.561L236.41 594.891L0.669922 487.511V435.891L236.41 538.791L777.01 486.531Z" fill="#00A7B6"/>
<path opacity="0.1" d="M236.41 538.791V594.891L0.669922 487.511V435.891L236.41 538.791Z" fill="black"/>
</g>
<defs>
<clipPath id="clip0_15751_4">
<rect width="783.79" height="812" fill="white"/>
</clipPath>
</defs>
</svg>
