<svg width="784" height="812" viewBox="0 0 784 812" fill="none" xmlns="http://www.w3.org/2000/svg">
<path d="M728.72 0L721.41 7.04L641.89 83.67L507.08 213.58L513.43 769.66L0.669922 643.42V275.37L194.1 52.39L728.72 0Z" fill="#373E46"/>
<path d="M783.79 353.278L769.02 730.728L239.77 811.328L0.669922 643.418V280.738L507.08 213.578L783.79 353.278Z" fill="#373E46"/>
<path d="M783.12 353.278L768.34 730.728L239.1 811.328L0 643.418V280.738L506.41 213.578L783.12 353.278Z" fill="#373E46"/>
<path opacity="0.1" d="M239.77 421.78V811.33L0.669922 643.42V280.98L239.77 421.78Z" fill="#00A7B6"/>
<path opacity="0.1" d="M507.08 213.578L512.45 773.718L769.02 730.728L783.79 353.278L507.08 213.578Z" fill="#00A7B6"/>
<path d="M783.79 353.278L680.36 343.868L431.91 220.858L507.08 213.578L783.79 353.278Z" fill="#373E46"/>
<path opacity="0.1" d="M350.52 217.982L351.92 67.832L343.23 210.252L350.52 217.982Z" fill="#00A7B6"/>
<path opacity="0.1" d="M409.68 67.832L407.99 249.002C404.88 248.332 401.8 247.512 398.78 246.582L409.68 67.832Z" fill="#00A7B6"/>
<path opacity="0.1" d="M467.44 67.832L465.77 247.552C462.68 248.422 459.52 249.152 456.34 249.742L467.44 67.832Z" fill="#00A7B6"/>
<path opacity="0.1" d="M523.87 211.002L525.2 67.832L515.96 219.212L523.87 211.002Z" fill="#00A7B6"/>
<path opacity="0.1" d="M409.21 210.22L409.68 159.18L406.56 210.22H409.21Z" fill="#00A7B6"/>
<path opacity="0.1" d="M522.08 210.22L525.2 159.18L524.73 210.22H522.08Z" fill="#00A7B6"/>
<path d="M783.12 355.289L777.01 486.529L774.54 539.559L765.66 730.059L236.41 811.999V421.109L783.12 355.289Z" fill="#373E46"/>
<path d="M0.669922 280.741L102.66 267.211L317.68 382.831L239.77 421.781L0.669922 280.741Z" fill="#373E46"/>
<path opacity="0.05" d="M0.669922 280.741L102.66 267.211L317.68 382.831L239.77 421.781L0.669922 280.741Z" fill="#00A7B6"/>
<path d="M777.01 486.531L774.54 539.561L236.41 594.891L0.669922 487.511V435.891L236.41 538.791L777.01 486.531Z" fill="#F9B507"/>
<path opacity="0.1" d="M236.41 538.791V594.891L0.669922 487.511V435.891L236.41 538.791Z" fill="#00A7B6"/>
<path d="M378.141 63.0695C320.675 45.3581 258.379 81.9733 238.999 144.852C232.518 165.88 229.586 188.758 235.556 207.739L285.052 365.102L414.546 262.906C428.733 251.709 441.232 228.038 447.102 208.991C466.482 146.112 435.607 80.781 378.141 63.0695ZM357.817 129.01C381.997 136.462 394.992 163.96 386.838 190.417C378.684 216.874 352.464 232.285 328.284 224.833C304.104 217.381 291.109 189.883 299.263 163.426C307.418 136.969 333.638 121.558 357.817 129.01Z" fill="#FFD983"/>
<path d="M478.141 51.0695C420.675 33.3581 358.379 69.9733 338.999 132.852C332.518 153.88 329.586 176.758 335.556 195.739L385.052 353.102L514.546 250.906C528.733 239.709 541.232 216.038 547.102 196.991C566.482 134.112 535.607 68.781 478.141 51.0695ZM457.817 117.01C481.997 124.462 494.992 151.96 486.838 178.417C478.684 204.874 452.464 220.285 428.284 212.833C404.104 205.381 391.109 177.883 399.263 151.426C407.418 124.969 433.638 109.558 457.817 117.01Z" fill="#F40D0D"/>
<path d="M607.141 59.0695C549.675 41.3581 487.379 77.9733 467.999 140.852C461.518 161.88 458.586 184.758 464.556 203.739L514.052 361.102L643.546 258.906C657.733 247.709 670.232 224.038 676.102 204.991C695.482 142.112 664.607 76.781 607.141 59.0695ZM586.817 125.01C610.997 132.462 623.992 159.96 615.838 186.417C607.684 212.874 581.464 228.285 557.284 220.833C533.104 213.381 520.109 185.883 528.263 159.426C536.418 132.969 562.638 117.558 586.817 125.01Z" fill="#20E33F"/>
</svg>
