<svg width="741" height="394" viewBox="0 0 741 394" fill="none" xmlns="http://www.w3.org/2000/svg">
<g clip-path="url(#clip0_15833_5)">
<path d="M412.132 391.311H277.043C277.043 391.311 274.305 351.15 290.506 350.693C306.708 350.237 304.882 368.492 325.191 343.391C345.5 318.29 370.145 319.659 373.339 334.492C376.534 349.324 367.178 361.19 384.292 357.539C401.407 353.888 426.051 363.472 412.132 391.311Z" fill="#F2F2F2"/>
<path d="M363.329 325.995C354.454 340.933 347.562 356.962 342.825 373.68C341.48 378.436 340.316 383.237 339.333 388.084C338.949 389.969 341.84 390.775 342.226 388.882C345.649 372.035 351.262 355.71 358.922 340.32C361.095 335.964 363.428 331.694 365.919 327.509C366.104 327.166 366.149 326.765 366.044 326.391C365.939 326.016 365.692 325.697 365.356 325.5C365.02 325.304 364.621 325.245 364.242 325.338C363.864 325.43 363.537 325.666 363.329 325.995V325.995Z" fill="white"/>
<path d="M471.124 142.874V248.311H185.097C183.918 248.311 182.751 248.079 181.663 247.629C180.574 247.178 179.584 246.517 178.751 245.684C177.918 244.85 177.257 243.861 176.806 242.772C176.355 241.683 176.123 240.516 176.124 239.338V133.9H462.15C463.329 133.9 464.496 134.132 465.584 134.583C466.673 135.034 467.663 135.695 468.496 136.528C469.329 137.361 469.99 138.351 470.441 139.439C470.892 140.528 471.124 141.695 471.124 142.874V142.874Z" fill="#00A9B7"/>
<path d="M739.485 393.245H1.19066C0.875467 393.244 0.573504 393.118 0.350952 392.895C0.1284 392.672 0.00341797 392.369 0.00341797 392.054C0.00341797 391.739 0.1284 391.436 0.350952 391.213C0.573504 390.99 0.875467 390.864 1.19066 390.863H739.485C739.8 390.863 740.103 390.989 740.327 391.212C740.55 391.435 740.675 391.738 740.675 392.054C740.675 392.37 740.55 392.673 740.327 392.896C740.103 393.119 739.8 393.245 739.485 393.245V393.245Z" fill="#3F3D56"/>
<path d="M338.624 248.311H336.624V392.311H338.624V248.311Z" fill="#3F3D56"/>
<path d="M491.124 249.311H184.124C181.737 249.308 179.45 248.359 177.763 246.672C176.075 244.984 175.126 242.697 175.124 240.311V111.311C175.126 108.924 176.075 106.637 177.763 104.95C179.45 103.262 181.737 102.313 184.124 102.311H491.124C493.51 102.313 495.797 103.262 497.484 104.95C499.172 106.637 500.121 108.924 500.124 111.311V240.311C500.121 242.697 499.172 244.984 497.484 246.672C495.797 248.359 493.51 249.308 491.124 249.311V249.311ZM184.124 104.311C182.268 104.313 180.488 105.051 179.176 106.363C177.864 107.675 177.126 109.455 177.124 111.311V240.311C177.126 242.166 177.864 243.946 179.176 245.258C180.488 246.57 182.268 247.308 184.124 247.311H491.124C492.979 247.308 494.759 246.57 496.071 245.258C497.383 243.946 498.121 242.166 498.124 240.311V111.311C498.121 109.455 497.383 107.675 496.071 106.363C494.759 105.051 492.979 104.313 491.124 104.311H184.124Z" fill="#3F3D56"/>
<path d="M406.124 170.311H225.124C224.328 170.311 223.565 169.994 223.002 169.432C222.44 168.869 222.124 168.106 222.124 167.311C222.124 166.515 222.44 165.752 223.002 165.189C223.565 164.627 224.328 164.311 225.124 164.311H406.124C406.919 164.311 407.682 164.627 408.245 165.189C408.807 165.752 409.124 166.515 409.124 167.311C409.124 168.106 408.807 168.869 408.245 169.432C407.682 169.994 406.919 170.311 406.124 170.311V170.311Z" fill="white"/>
<path d="M406.124 195.311H225.124C224.328 195.311 223.565 194.994 223.002 194.432C222.44 193.869 222.124 193.106 222.124 192.311C222.124 191.515 222.44 190.752 223.002 190.189C223.565 189.627 224.328 189.311 225.124 189.311H406.124C406.919 189.311 407.682 189.627 408.245 190.189C408.807 190.752 409.124 191.515 409.124 192.311C409.124 193.106 408.807 193.869 408.245 194.432C407.682 194.994 406.919 195.311 406.124 195.311V195.311Z" fill="white"/>
<path d="M406.124 220.311H225.124C224.328 220.311 223.565 219.994 223.002 219.432C222.44 218.869 222.124 218.106 222.124 217.311C222.124 216.515 222.44 215.752 223.002 215.189C223.565 214.627 224.328 214.311 225.124 214.311H406.124C406.919 214.311 407.682 214.627 408.245 215.189C408.807 215.752 409.124 216.515 409.124 217.311C409.124 218.106 408.807 218.869 408.245 219.432C407.682 219.994 406.919 220.311 406.124 220.311V220.311Z" fill="white"/>
<path d="M498.835 135.759C516.987 135.759 531.701 121.044 531.701 102.892C531.701 84.7403 516.987 70.0254 498.835 70.0254C480.683 70.0254 465.968 84.7403 465.968 102.892C465.968 121.044 480.683 135.759 498.835 135.759Z" fill="#CCCCCC"/>
<path d="M498.972 112.787L482.524 96.3389C481.991 95.8023 481.693 95.0763 481.694 94.32C481.695 93.5636 481.996 92.8386 482.531 92.3038C483.066 91.769 483.791 91.468 484.547 91.4667C485.304 91.4654 486.03 91.764 486.566 92.2969L498.698 104.429L537.412 60.2816C537.912 59.7128 538.618 59.3657 539.373 59.3166C540.129 59.2675 540.874 59.5203 541.443 60.0197C542.012 60.519 542.36 61.224 542.41 61.9797C542.46 62.7354 542.208 63.4801 541.71 64.0501L498.972 112.787Z" fill="#00A9B7"/>
</g>
<defs>
<clipPath id="clip0_15833_5">
<rect width="740.675" height="393.245" fill="white"/>
</clipPath>
</defs>
</svg>
